<?xml version="1.0" standalone="no"?>
<!DOCTYPE svg PUBLIC "-//W3C//DTD SVG 20010904//EN"
 "http://www.w3.org/TR/2001/REC-SVG-20010904/DTD/svg10.dtd">
<svg version="1.0" xmlns="http://www.w3.org/2000/svg"
 width="922.000000pt" height="922.000000pt" viewBox="0 0 922.000000 922.000000"
 preserveAspectRatio="xMidYMid meet">
<metadata>
Created by potrace 1.14, written by Peter Selinger 2001-2017
</metadata>
<g transform="translate(0.000000,922.000000) scale(0.100000,-0.100000)"
fill="#000000" stroke="none">
<path d="M7030 7613 c0 -7 -8 -13 -18 -13 -10 0 -48 -10 -84 -23 -58 -20 -64
-24 -45 -33 16 -6 21 -17 19 -34 -4 -42 -10 -50 -39 -50 -22 0 -31 7 -43 33
-8 17 -13 42 -11 54 2 17 -6 26 -35 38 -52 21 -76 25 -92 12 -8 -6 -64 -12
-130 -12 -65 -1 -127 -5 -139 -9 -16 -6 -23 -3 -28 13 -9 29 -82 29 -117 1
-19 -14 -40 -19 -79 -18 -80 2 -139 -3 -139 -12 0 -13 -56 -32 -107 -35 -26
-2 -77 -11 -113 -20 -36 -9 -76 -17 -90 -17 -14 0 -27 -4 -30 -8 -9 -12 -60
-21 -60 -10 0 16 -30 12 -36 -5 -4 -8 -14 -15 -24 -15 -10 0 -20 -4 -22 -8 -2
-6 -112 -43 -163 -55 -5 -2 -14 -5 -20 -8 -5 -4 -23 -10 -40 -14 -38 -10 -34
-9 -70 -24 -16 -8 -50 -16 -75 -18 -25 -3 -49 -11 -55 -18 -10 -12 -107 -48
-137 -51 -9 -1 -24 -9 -33 -18 -21 -20 -44 -21 -51 -1 -10 24 -25 17 -19 -8 6
-22 -1 -26 -112 -66 -65 -23 -130 -49 -145 -57 -14 -8 -33 -11 -42 -8 -9 3
-16 2 -16 -3 0 -9 -161 -113 -175 -113 -3 0 -18 -9 -33 -19 -22 -16 -50 -20
-157 -24 -83 -4 -160 -13 -213 -26 -61 -16 -88 -18 -103 -11 -13 7 -19 7 -19
0 0 -5 -6 -10 -14 -10 -8 0 -16 -4 -18 -8 -1 -5 -66 -20 -143 -35 -77 -15
-201 -40 -274 -56 -74 -16 -137 -29 -140 -29 -4 1 -24 -3 -46 -10 -63 -17
-113 -23 -120 -13 -5 10 -66 -8 -76 -22 -10 -14 -123 -34 -159 -29 -18 2 -35
0 -39 -5 -10 -15 -130 -41 -221 -48 -46 -4 -92 -11 -101 -16 -22 -11 -66 -13
-110 -5 -32 7 -40 4 -74 -28 -35 -34 -42 -36 -102 -36 -36 0 -89 -7 -119 -16
-37 -11 -63 -13 -81 -7 -28 10 -103 -5 -103 -19 0 -4 -6 -8 -14 -8 -14 0 -26
-29 -26 -66 0 -24 -37 -67 -50 -59 -5 3 -23 -1 -39 -10 -39 -20 -41 -19 -41 9
0 15 12 35 32 52 18 15 32 29 30 33 -2 3 5 8 15 12 16 7 15 8 -4 8 -12 1 -44
9 -70 20 -26 10 -71 21 -100 25 -51 6 -52 6 -55 -21 -2 -16 1 -38 6 -50 15
-38 0 -69 -44 -87 -22 -9 -40 -22 -40 -30 0 -19 -22 -26 -90 -26 -66 0 -76 8
-86 67 l-6 40 58 8 c66 8 86 19 77 43 -16 42 -50 59 -130 67 -66 6 -129 15
-279 39 -12 2 -32 10 -45 17 -23 12 -82 20 -144 19 -17 0 -37 -9 -47 -20 -18
-22 -28 -25 -28 -9 0 15 -22 35 -48 43 -12 4 -30 18 -41 32 -18 23 -20 23 -55
9 -20 -8 -39 -16 -43 -17 -43 -8 -44 -10 -28 -29 14 -14 15 -30 10 -83 -4 -37
-12 -69 -19 -73 -9 -6 -121 -14 -226 -16 -19 0 -63 6 -98 13 -35 7 -66 10 -69
7 -8 -9 53 -67 71 -67 10 0 16 -9 16 -25 0 -16 -6 -25 -15 -25 -8 0 -15 -6
-15 -12 1 -18 25 -48 38 -48 6 0 10 -19 9 -47 -2 -42 -5 -48 -22 -45 -41 5
-154 67 -159 87 -4 14 -8 17 -17 8 -14 -14 11 -65 42 -87 13 -9 19 -21 16 -30
-5 -11 -1 -16 13 -16 19 0 27 -22 29 -89 2 -45 -7 -71 -25 -71 -11 0 -12 -4
-4 -19 5 -11 7 -28 4 -38 -5 -15 -4 -15 5 -3 16 23 74 -36 67 -70 -3 -14 -3
-19 0 -12 7 16 76 16 141 -1 42 -11 50 -11 46 0 -3 7 2 13 11 13 9 0 16 -6 16
-14 0 -8 4 -16 10 -18 5 -1 11 -12 13 -23 1 -11 6 -26 10 -33 5 -6 2 -28 -5
-48 -9 -26 -17 -34 -30 -31 -10 3 -18 1 -18 -3 0 -15 -53 -3 -62 14 -5 9 -16
16 -24 16 -8 0 -28 14 -46 30 -31 30 -44 38 -33 20 9 -14 -1 -13 -17 3 -21 18
-80 48 -86 43 -15 -15 11 -53 48 -68 26 -11 40 -23 40 -35 0 -13 17 -25 60
-41 33 -13 64 -21 69 -17 6 3 13 -16 17 -42 4 -27 12 -52 18 -56 8 -6 7 -10
-1 -14 -7 -2 -13 -13 -13 -24 0 -10 -6 -19 -12 -20 -7 0 -3 -4 10 -9 12 -5 25
-16 28 -24 3 -8 11 -13 19 -10 7 3 19 -2 28 -10 8 -8 17 -12 21 -9 6 6 26 -40
26 -63 0 -19 -38 -56 -50 -49 -6 4 -10 -1 -10 -11 0 -26 62 -114 81 -114 26 0
34 -47 14 -93 -5 -13 -1 -25 15 -43 13 -13 20 -24 15 -24 -4 0 4 -9 19 -21 15
-12 26 -30 26 -45 0 -14 4 -23 9 -20 11 7 23 -37 15 -58 -9 -23 -25 -20 -64
14 -19 16 -41 29 -49 30 -8 0 -30 6 -49 12 -30 11 -35 11 -48 -6 -12 -17 -12
-22 4 -39 17 -20 112 -67 135 -67 7 0 45 -16 85 -35 51 -24 75 -42 82 -60 5
-14 14 -25 20 -25 19 0 10 -37 -13 -54 -15 -12 -18 -18 -10 -22 16 -7 17 -46
2 -61 -9 -9 -4 -19 19 -42 17 -17 33 -31 36 -31 21 0 116 -55 116 -67 0 -19
-39 -55 -51 -47 -5 3 -9 0 -9 -5 0 -6 6 -11 13 -11 7 0 20 -9 30 -20 9 -11 23
-20 31 -20 17 0 39 -60 30 -83 -3 -10 -12 -17 -19 -17 -17 0 -37 25 -27 35 4
4 -3 2 -15 -4 -26 -13 -31 -23 -8 -15 10 4 15 0 15 -14 0 -23 -28 -36 -55 -26
-16 7 -17 3 -12 -30 7 -45 31 -65 69 -59 27 4 28 3 26 -37 -1 -29 -5 -39 -14
-36 -8 3 -11 0 -7 -11 5 -13 0 -14 -38 -7 -42 9 -177 9 -186 1 -8 -8 10 -37
23 -37 8 0 14 -4 14 -9 0 -5 9 -11 21 -14 28 -8 18 -33 -11 -29 -13 1 -27 -3
-31 -9 -10 -17 1 -49 17 -49 8 0 23 -9 34 -20 13 -13 33 -20 61 -20 22 0 38
-4 35 -9 -4 -5 3 -7 15 -4 12 4 25 0 30 -8 15 -23 10 -39 -11 -39 -13 0 -20
-7 -20 -20 0 -12 -7 -20 -17 -20 -10 0 -27 -7 -37 -15 -23 -17 -46 -20 -46 -5
0 15 -38 50 -54 50 -20 0 -116 41 -116 50 0 4 -13 10 -30 12 -35 5 -35 3 -15
-46 20 -48 75 -103 111 -111 38 -9 45 -12 70 -30 19 -14 23 -14 47 5 27 21 57
27 57 10 0 -5 7 -10 15 -10 19 0 20 -29 1 -36 -8 -3 -13 -11 -10 -18 6 -16
-33 -36 -71 -37 -47 0 -118 8 -140 16 -16 7 -18 6 -7 -6 6 -7 12 -21 12 -30 0
-10 4 -19 10 -21 6 -2 5 -19 -1 -47 -11 -50 3 -168 24 -202 6 -11 31 -29 54
-40 60 -29 68 -44 28 -51 -28 -4 -43 -27 -40 -58 2 -14 -1 -30 -7 -37 -6 -8
-5 -19 2 -33 11 -21 10 -21 -37 -15 -26 4 -52 11 -57 15 -5 5 -14 6 -21 3 -20
-7 -129 23 -178 49 -26 14 -55 22 -75 20 -32 -3 -33 -4 -27 -45 4 -23 15 -51
26 -63 10 -11 16 -24 12 -28 -5 -4 -3 -6 2 -5 16 5 56 -21 50 -32 -4 -5 2 -9
13 -9 19 0 153 -57 162 -69 3 -3 17 -12 33 -18 19 -9 27 -20 27 -38 0 -18 5
-25 20 -25 11 0 20 -6 20 -13 0 -7 19 -17 42 -23 43 -9 65 -34 31 -34 -11 0
-24 -5 -29 -10 -16 -16 -56 -21 -70 -9 -6 5 -21 11 -32 14 -15 3 -21 -3 -26
-27 -5 -27 -8 -29 -23 -17 -11 10 -14 10 -9 2 11 -19 -4 -16 -42 7 -40 25 -49
45 -28 65 23 24 20 44 -9 55 -14 5 -25 15 -25 21 0 7 -3 9 -6 6 -10 -10 -44
12 -44 28 0 8 -6 12 -14 9 -8 -3 -24 4 -35 15 -12 12 -26 21 -31 21 -6 0 -25
7 -41 16 -17 8 -34 12 -37 8 -4 -4 -1 -9 6 -11 6 -3 12 -13 12 -23 0 -11 7
-17 17 -16 9 0 22 -9 28 -21 7 -13 14 -20 18 -17 3 3 18 -6 34 -21 19 -19 22
-26 10 -21 -11 3 -16 2 -12 -4 3 -5 2 -17 -3 -26 -11 -20 7 -64 27 -64 8 0 11
-7 8 -20 -3 -11 -1 -18 4 -14 5 3 21 -7 35 -23 14 -15 23 -23 20 -16 -10 19
31 25 62 9 17 -9 35 -29 41 -47 6 -17 19 -33 28 -36 25 -7 62 -68 56 -92 -3
-11 -11 -17 -19 -14 -15 5 -74 -17 -74 -29 0 -4 16 -10 35 -14 19 -3 35 -10
35 -14 0 -5 9 -10 20 -12 12 -2 20 -7 20 -12 -2 -13 22 -26 51 -26 51 0 105
-69 67 -83 -9 -3 -4 -14 15 -34 15 -16 27 -37 27 -46 0 -9 4 -17 8 -17 13 0
32 -48 32 -81 0 -36 56 -99 88 -99 29 0 53 11 47 21 -10 15 34 89 49 83 9 -3
17 3 21 15 6 18 12 20 48 15 48 -8 77 -20 77 -34 0 -6 11 -10 25 -10 14 0 33
-8 43 -18 10 -9 27 -18 37 -19 78 -9 134 -28 140 -48 6 -20 6 -20 14 0 8 19 8
19 19 -2 7 -12 12 -27 12 -33 0 -15 26 -41 34 -33 3 3 34 7 68 7 39 1 63 5 65
13 3 7 12 22 21 33 17 19 20 19 202 4 102 -8 217 -17 255 -19 128 -7 189 -15
196 -27 5 -7 18 0 40 21 43 40 75 39 72 -3 -1 -19 5 -36 17 -46 11 -9 18 -19
15 -21 -4 -5 4 -6 78 -11 26 -2 47 0 47 3 0 4 11 10 25 13 14 4 35 16 46 27
11 11 27 18 35 15 8 -3 17 1 21 9 3 9 10 14 17 13 6 -1 21 2 34 6 14 5 28 3
37 -4 7 -6 15 -7 17 -3 7 18 76 44 99 38 34 -8 84 8 84 27 0 25 36 58 62 58
12 0 23 4 23 9 0 5 23 31 50 58 38 36 61 49 90 54 25 3 40 1 40 -5 0 -8 3 -8
8 0 4 5 36 15 72 22 36 6 128 29 205 51 184 51 281 73 324 74 43 0 165 -25
203 -43 35 -17 220 0 268 23 30 15 35 15 50 2 19 -17 40 -3 40 26 0 11 19 23
58 37 59 22 116 39 148 47 63 15 315 87 402 115 57 17 109 33 115 34 7 1 58
17 115 35 56 17 107 29 113 25 6 -4 14 -1 18 5 4 6 34 16 66 21 32 5 61 13 64
18 8 11 200 63 359 96 68 15 159 35 202 46 43 12 82 20 86 19 5 -1 16 0 24 4
8 3 32 8 54 11 21 3 55 13 75 24 47 24 101 28 101 7 0 -17 35 -21 45 -5 3 6
37 10 75 10 38 0 72 5 75 10 4 6 12 7 18 4 7 -4 9 -4 5 1 -4 4 4 17 18 28 24
18 30 19 63 7 69 -25 100 -29 112 -13 7 7 18 12 26 9 9 -4 11 -1 7 6 -4 6 -1
16 7 22 8 6 22 23 32 39 16 25 47 38 47 18 0 -5 19 -5 43 0 101 21 163 30 206
29 54 0 109 5 115 11 10 10 307 -10 321 -21 9 -7 14 -15 11 -17 -2 -3 9 -17
25 -32 16 -15 27 -30 25 -32 -3 -2 5 -5 17 -5 154 -10 157 -10 157 7 0 9 6 19
13 22 16 6 315 -11 328 -18 5 -4 9 -13 9 -21 0 -8 9 -14 21 -14 16 0 20 -5 16
-19 -3 -14 -1 -18 9 -14 8 3 15 -5 19 -24 4 -15 14 -50 22 -77 13 -41 13 -50
2 -57 -9 -7 -5 -7 13 -3 20 4 29 2 34 -10 4 -11 13 -14 29 -10 13 3 26 0 30
-6 10 -16 34 34 41 83 6 52 8 54 49 61 19 4 35 11 35 16 0 6 12 10 26 10 17 0
28 6 31 19 3 13 11 17 24 14 10 -3 19 -9 19 -13 0 -11 43 -26 68 -22 25 4 29
24 7 42 -18 15 -20 35 -3 24 7 -4 8 -3 4 5 -5 8 -19 10 -37 6 -19 -4 -29 -3
-29 5 0 19 57 67 87 73 31 6 111 -27 120 -49 3 -8 14 -14 24 -14 10 0 19 -4
19 -9 0 -6 12 -6 30 0 17 6 30 16 30 23 0 22 41 47 73 44 23 -2 32 1 35 15 2
12 -3 17 -18 17 -28 0 -80 27 -80 42 0 6 -3 8 -6 5 -4 -3 -16 -1 -28 5 -11 6
-33 11 -48 10 -23 -2 -28 2 -28 20 0 12 -3 19 -6 15 -3 -3 -16 -2 -28 3 -15 5
-28 2 -45 -11 -28 -23 -57 -24 -65 -3 -10 27 -7 44 9 44 17 0 19 9 6 28 -6 10
-13 11 -34 1 -21 -10 -33 -8 -76 12 -34 16 -51 30 -52 44 -1 18 -2 18 -6 2 -4
-17 -7 -16 -36 5 -18 13 -44 30 -59 37 -37 19 -43 39 -13 47 13 3 29 3 35 -1
6 -4 53 -11 103 -15 96 -8 177 -35 177 -59 0 -8 7 -11 20 -8 11 3 26 0 33 -7
7 -7 29 -19 50 -25 20 -7 35 -16 33 -19 -2 -4 16 -8 40 -8 24 -1 44 1 45 5 0
3 2 21 5 39 3 26 -2 38 -22 58 -15 13 -24 24 -20 24 3 0 -2 8 -12 18 -10 10
-26 19 -34 19 -18 0 -138 82 -138 94 0 5 -7 9 -15 9 -8 0 -15 5 -15 11 0 17
-40 49 -61 49 -18 0 -33 15 -34 35 -2 27 -18 64 -26 60 -4 -3 -16 6 -25 20
-13 21 -14 28 -4 40 11 13 9 21 -9 46 -24 32 -22 59 4 59 8 0 15 -4 15 -9 0
-4 11 -6 25 -3 20 3 25 10 25 36 1 17 7 45 14 61 8 20 10 42 5 65 -5 19 -9 50
-9 68 0 25 4 32 20 32 19 0 19 1 3 18 -10 11 -21 17 -24 16 -10 -6 -71 44 -91
73 -26 40 -23 63 7 63 24 0 72 -24 85 -42 10 -13 76 11 99 36 21 23 22 26 8
40 -9 9 -22 16 -31 16 -21 0 -66 21 -66 32 0 4 -3 7 -7 6 -16 -3 -63 15 -63
24 0 6 -7 7 -16 4 -9 -4 -24 -1 -32 6 -9 7 -13 8 -9 2 6 -11 -27 -46 -37 -38
-3 2 -4 1 -1 -3 8 -11 -16 -33 -37 -33 -10 0 -21 7 -25 16 -7 18 27 85 40 77
5 -3 6 4 2 16 -5 18 5 42 41 90 2 2 11 0 21 -4 55 -24 82 -1 44 39 -31 33 -27
50 9 43 49 -10 42 1 -56 90 -35 32 -80 62 -106 70 -10 3 -18 9 -18 13 0 4 -9
10 -20 13 -13 3 -20 14 -20 29 0 12 -3 33 -6 46 -5 17 -2 22 13 22 11 0 28 -7
39 -15 10 -8 25 -15 33 -15 25 0 -9 29 -80 67 -37 21 -65 41 -63 45 3 4 -2 5
-10 2 -9 -3 -16 -1 -16 5 0 6 -18 19 -40 28 -35 15 -40 22 -40 50 0 25 -5 32
-22 35 -19 2 -24 10 -26 41 -3 38 2 42 65 40 6 0 14 6 17 13 3 8 2 14 -2 14
-10 0 -42 54 -42 70 0 9 15 11 58 6 31 -4 73 -8 94 -9 l36 -3 -14 28 c-17 32
-18 65 -3 70 6 2 1 14 -10 27 -23 27 -28 70 -8 72 63 7 95 4 133 -10 24 -10
41 -21 37 -25 -5 -4 -3 -6 2 -5 6 2 40 -12 77 -30 80 -40 94 -38 70 9 -22 43
-103 102 -145 105 -56 3 -65 12 -65 66 -1 71 -9 89 -39 89 -24 0 -213 77 -223
91 -3 4 -24 13 -48 20 -46 13 -65 46 -42 74 11 13 10 14 -2 10 -9 -4 -19 4
-26 20 -7 15 -8 25 -2 25 6 0 10 7 10 15 0 11 9 15 28 13 31 -2 72 17 72 34 0
7 -12 24 -27 40 -20 20 -26 37 -25 65 2 48 10 55 54 41 32 -9 39 -8 59 11 13
13 20 21 14 20 -5 -2 -22 5 -37 15 -44 29 -34 96 14 96 11 0 18 -7 18 -20 0
-14 7 -19 28 -19 30 1 144 -16 180 -27 18 -5 22 -3 19 12 -4 30 -16 44 -32 38
-8 -3 -34 1 -57 9 -24 8 -62 20 -85 26 -31 9 -42 17 -45 34 -2 16 -9 21 -25
19 -32 -4 -76 27 -70 50 3 10 2 18 -2 18 -11 0 -12 52 -2 80 5 14 17 51 27 82
14 45 23 58 43 63 15 4 27 2 29 -4 2 -6 10 -11 18 -11 19 0 31 -34 26 -70 -3
-21 -14 -33 -39 -45 -19 -9 -40 -14 -48 -12 -9 4 -11 -1 -8 -14 3 -12 14 -19
29 -19 13 0 29 -9 36 -20 7 -11 20 -20 29 -20 9 0 24 -11 34 -24 16 -21 24
-23 77 -20 68 4 88 12 64 26 -9 5 -13 14 -10 20 4 6 3 8 -3 5 -6 -4 -27 3 -49
13 -21 11 -44 20 -51 20 -7 0 -13 9 -13 20 0 11 -4 20 -10 20 -5 0 -10 6 -10
13 0 12 8 12 48 1 51 -13 46 -15 88 41 20 27 40 32 46 13 3 -8 13 -4 29 11 24
22 24 23 4 37 -11 8 -25 12 -33 9 -18 -7 -94 33 -87 45 3 6 -1 7 -9 4 -19 -7
-22 26 -4 44 7 7 8 12 1 12 -14 0 -63 46 -63 60 0 5 9 10 20 10 11 0 23 7 26
15 5 13 9 13 22 3 14 -12 14 -11 1 9 -15 25 -11 32 21 38 13 3 28 10 34 16 8
9 8 10 0 6 -15 -9 -51 31 -59 66 -7 28 -12 30 -55 28 -25 -2 -98 54 -93 71 2
4 -3 8 -10 8 -15 0 -63 51 -59 63 1 5 -2 6 -6 3 -13 -8 -122 53 -122 68 0 6 5
17 12 24 9 9 8 12 -4 12 -11 0 -20 19 -32 66 -17 69 -15 84 12 84 13 1 10 6
-10 21 -17 13 -28 30 -28 45 0 17 -4 22 -16 17 -10 -4 -20 1 -26 11 -8 13 -20
15 -70 11 -75 -7 -81 -11 -73 -42 6 -24 4 -25 -22 -18 -34 8 -41 19 -39 60 1
18 -2 31 -5 29 -4 -2 -26 12 -49 31 -26 22 -54 36 -73 37 -18 1 -45 2 -62 3
-16 1 -45 5 -63 9 -40 10 -55 12 -199 27 -105 12 -114 11 -133 -6 -24 -21 -26
-50 -5 -59 8 -3 15 -14 15 -25 0 -15 5 -18 22 -13 17 4 20 2 15 -12 -4 -10 -3
-15 3 -11 12 8 13 -45 1 -64 -8 -13 -19 -13 -85 2 -11 2 -22 9 -24 15 -2 7
-11 12 -20 13 -33 1 -64 56 -66 113 -1 49 -3 54 -31 66 -16 8 -33 18 -37 24
-5 8 -8 7 -8 -1z m-6616 -1609 c9 -8 19 -13 23 -11 5 3 8 -6 8 -19 0 -28 -7
-30 -28 -9 -9 8 -17 10 -19 5 -2 -6 -21 -11 -43 -13 -34 -2 -40 1 -40 18 0 16
6 19 29 17 23 -3 28 -1 23 12 -8 21 26 22 47 0z m7563 -1207 c18 -3 40 -10 50
-16 20 -10 24 -11 54 -11 13 0 18 -4 13 -12 -4 -7 -3 -8 4 -4 6 4 25 0 42 -9
16 -8 31 -15 32 -15 16 3 69 -26 73 -41 6 -19 12 -21 72 -21 18 0 30 -4 28 -9
-3 -4 -1 -10 5 -14 17 -11 11 -23 -24 -44 -27 -17 -39 -19 -61 -11 -14 5 -56
13 -93 16 -37 3 -80 7 -97 9 -16 1 -42 3 -57 4 -20 1 -27 7 -30 24 -2 14 -11
23 -26 25 -15 2 -29 16 -40 40 -9 20 -23 43 -29 50 -7 7 -13 18 -13 23 0 6 -4
7 -10 4 -5 -3 -10 1 -10 10 0 17 25 18 117 2z m-6901 -932 c27 -8 87 -17 134
-20 47 -3 96 -8 110 -10 14 -2 57 -6 95 -10 62 -6 72 -9 82 -32 10 -22 9 -30
-14 -64 -14 -21 -32 -39 -39 -39 -8 0 -14 -5 -14 -11 0 -6 -7 -9 -15 -5 -8 3
-15 1 -15 -4 0 -6 -7 -10 -16 -10 -8 0 -12 4 -9 10 3 6 -1 7 -9 4 -17 -6 -136
36 -136 48 0 5 -8 8 -17 8 -22 0 -136 35 -163 50 -11 6 -20 20 -20 30 0 11 -4
20 -10 20 -5 0 -10 7 -10 15 0 8 5 15 11 15 5 0 7 5 4 10 -8 13 -8 13 51 -5z"/>
<path d="M8170 7303 c1 -24 22 -57 39 -61 8 -2 26 0 40 3 l26 7 -25 20 c-14
11 -25 25 -25 32 0 6 -12 12 -27 14 -22 3 -28 -1 -28 -15z"/>
<path d="M466 6674 c-11 -28 36 -68 68 -60 33 8 33 19 -1 36 -16 8 -35 20 -44
28 -14 11 -18 10 -23 -4z"/>
<path d="M8513 5233 c4 -6 33 -23 64 -39 32 -16 61 -33 65 -39 4 -5 8 -7 8 -2
0 4 15 0 33 -8 29 -14 30 -14 12 0 -11 8 -29 23 -40 32 -11 10 -21 16 -23 15
-1 -1 -17 5 -35 15 -17 9 -36 18 -42 19 -5 1 -19 6 -29 10 -13 5 -17 4 -13 -3z"/>
<path d="M500 4702 c0 -12 105 -61 153 -71 l42 -10 -25 19 c-14 11 -28 20 -32
20 -4 0 -17 4 -30 9 -13 5 -26 9 -31 10 -4 0 -23 7 -42 15 -19 8 -35 12 -35 8z"/>
</g>
</svg>
